<svg width="14" height="13" viewBox="0 0 14 13" fill="none"
  xmlns="http://www.w3.org/2000/svg">
  <path d="M11.0013 4.65234C10.8747 4.61016 10.7481 4.57031 10.6216 4.53281C10.6427 4.44609 10.6614 4.35937 10.6802 4.27266C10.9685 2.87578 10.7786 1.75312 10.1388 1.38281C9.52236 1.02891 8.51689 1.39687 7.49971 2.28281C7.39893 2.36953 7.30049 2.46094 7.20674 2.55234C7.14346 2.49141 7.07783 2.43047 7.01221 2.37187C5.9458 1.425 4.87705 1.02656 4.23721 1.39922C3.62314 1.75547 3.44033 2.8125 3.69814 4.13438C3.72393 4.26563 3.75205 4.39453 3.78486 4.52578C3.63486 4.56797 3.48721 4.61484 3.34893 4.66406C2.09736 5.09766 1.19971 5.78203 1.19971 6.48984C1.19971 7.22109 2.15596 7.95469 3.45674 8.4C3.56221 8.43516 3.66768 8.47031 3.77549 8.50078C3.74033 8.64141 3.70986 8.77969 3.68174 8.92266C3.43564 10.2234 3.62783 11.2547 4.24189 11.6086C4.87471 11.9742 5.93877 11.5992 6.97471 10.6922C7.05674 10.6195 7.13877 10.5445 7.2208 10.4648C7.32393 10.5656 7.43174 10.6617 7.53955 10.7555C8.54268 11.618 9.53408 11.9672 10.1458 11.6133C10.7786 11.2477 10.9849 10.1391 10.7177 8.78906C10.6966 8.68594 10.6731 8.58047 10.6474 8.47266C10.7224 8.45156 10.795 8.42812 10.8677 8.40469C12.22 7.95703 13.1997 7.23281 13.1997 6.48984C13.1997 5.77969 12.2763 5.09062 11.0013 4.65234ZM7.83018 2.6625C8.70205 1.90312 9.51533 1.60547 9.88564 1.81875C10.2817 2.04609 10.4341 2.96484 10.1856 4.17187C10.1692 4.25156 10.1528 4.32891 10.1317 4.40625C9.61143 4.28906 9.08408 4.20469 8.55439 4.15781C8.24971 3.72188 7.91689 3.30469 7.55596 2.91328C7.64736 2.82656 7.73643 2.74453 7.83018 2.6625ZM5.11846 7.70625C5.23799 7.91016 5.35986 8.11406 5.48877 8.31328C5.12314 8.27344 4.75986 8.21484 4.40127 8.1375C4.50439 7.8 4.6333 7.45078 4.7833 7.09453C4.89111 7.30078 5.00127 7.50469 5.11846 7.70625ZM4.4083 4.88672C4.7458 4.81172 5.10439 4.75078 5.47705 4.70391C5.35283 4.89844 5.23096 5.09766 5.11611 5.29922C5.00127 5.49844 4.88877 5.70234 4.7833 5.90859C4.63564 5.55937 4.51143 5.21719 4.4083 4.88672ZM5.05049 6.50156C5.20518 6.17812 5.37393 5.86172 5.55205 5.55C5.73018 5.23828 5.92236 4.93594 6.12393 4.63828C6.47549 4.6125 6.83408 4.59844 7.19971 4.59844C7.56533 4.59844 7.92627 4.6125 8.27549 4.63828C8.47471 4.93359 8.66455 5.23594 8.84502 5.54531C9.02549 5.85469 9.19424 6.17109 9.35361 6.49219C9.19658 6.81562 9.02783 7.13437 8.84736 7.44844C8.66924 7.76016 8.47939 8.0625 8.28018 8.3625C7.93096 8.38828 7.56768 8.4 7.19971 8.4C6.83174 8.4 6.47549 8.38828 6.13096 8.36719C5.92705 8.06953 5.73486 7.76484 5.55439 7.45312C5.37393 7.14141 5.20752 6.825 5.05049 6.50156ZM9.2833 7.70156C9.40283 7.49531 9.51533 7.28672 9.62549 7.07578C9.77549 7.41562 9.90674 7.76016 10.0216 8.11406C9.6583 8.19609 9.29033 8.25937 8.92002 8.30156C9.04658 8.10469 9.16611 7.90312 9.2833 7.70156ZM9.6208 5.90859C9.51064 5.70234 9.39814 5.49609 9.28096 5.29453C9.16611 5.09531 9.04658 4.89844 8.92236 4.70391C9.29971 4.75078 9.66064 4.81406 9.99814 4.89141C9.89033 5.23828 9.76377 5.57578 9.6208 5.90859ZM7.20439 3.27187C7.45049 3.53906 7.68252 3.82031 7.89814 4.11094C7.43408 4.08984 6.96768 4.08984 6.50361 4.11094C6.7333 3.80859 6.97002 3.52734 7.20439 3.27187ZM4.48564 1.83516C4.87939 1.60547 5.75361 1.93359 6.67471 2.74922C6.7333 2.80078 6.79189 2.85703 6.85283 2.91328C6.48955 3.30469 6.15439 3.72188 5.84736 4.15781C5.31768 4.20469 4.79268 4.28672 4.27236 4.40156C4.24189 4.28203 4.21611 4.16016 4.19033 4.03828C3.97002 2.90391 4.11533 2.04844 4.48564 1.83516ZM3.91143 8.01328C3.81299 7.98516 3.71689 7.95469 3.6208 7.92188C3.12158 7.76484 2.55439 7.51641 2.14424 7.19062C1.90752 7.02656 1.74814 6.77344 1.70361 6.48984C1.70361 6.06094 2.44424 5.5125 3.51299 5.13984C3.64658 5.09297 3.78252 5.05078 3.91846 5.01094C4.07783 5.51953 4.27002 6.01875 4.49268 6.50156C4.26768 6.99141 4.07314 7.49766 3.91143 8.01328ZM6.64424 10.3102C6.25752 10.6641 5.80986 10.9453 5.32236 11.1375C5.06221 11.2617 4.76221 11.2734 4.49502 11.168C4.12236 10.9523 3.96768 10.125 4.17861 9.01172C4.20439 8.88047 4.23252 8.74922 4.26533 8.62031C4.79033 8.73281 5.32002 8.81016 5.85674 8.85C6.16611 9.28828 6.50596 9.70781 6.86924 10.1016C6.79424 10.1742 6.71924 10.2445 6.64424 10.3102ZM7.21846 9.74062C6.97939 9.48281 6.74033 9.19687 6.5083 8.88984C6.7333 8.89922 6.96533 8.90391 7.19971 8.90391C7.44111 8.90391 7.67783 8.89922 7.91221 8.8875C7.69658 9.18516 7.46455 9.46875 7.21846 9.74062ZM10.2817 10.4437C10.2606 10.7297 10.12 10.9969 9.89502 11.1773C9.52236 11.393 8.72783 11.1117 7.87002 10.3758C7.77158 10.2914 7.67314 10.2 7.57236 10.1062C7.93096 9.71016 8.26143 9.29062 8.56143 8.85C9.09814 8.80547 9.63252 8.72344 10.1599 8.60391C10.1833 8.7 10.2044 8.79609 10.2231 8.88984C10.338 9.39609 10.3567 9.92344 10.2817 10.4437ZM10.7083 7.92422C10.6427 7.94531 10.5771 7.96641 10.5091 7.98516C10.345 7.47422 10.1435 6.975 9.91143 6.48984C10.1364 6.01172 10.3263 5.51953 10.4856 5.01562C10.6075 5.05078 10.7247 5.08828 10.8372 5.12578C11.9294 5.50078 12.6958 6.05859 12.6958 6.48516C12.6958 6.94453 11.8778 7.5375 10.7083 7.92422ZM7.19971 7.57266C7.79268 7.57266 8.27314 7.09219 8.27314 6.49922C8.27314 5.90625 7.79268 5.42578 7.19971 5.42578C6.60674 5.42578 6.12627 5.90625 6.12627 6.49922C6.12627 7.09219 6.60674 7.57266 7.19971 7.57266Z" fill="url(#paint0_radial_1060_1459)" style=""/>
  <path d="M10.8016 4.40283C10.675 4.36064 10.5484 4.3208 10.4219 4.2833C10.443 4.19658 10.4617 4.10986 10.4805 4.02314C10.7688 2.62627 10.5789 1.50361 9.93906 1.1333C9.32266 0.779394 8.31719 1.14736 7.3 2.0333C7.19922 2.12002 7.10078 2.21143 7.00703 2.30283C6.94375 2.24189 6.87812 2.18096 6.8125 2.12236C5.74609 1.17549 4.67734 0.777051 4.0375 1.14971C3.42344 1.50596 3.24062 2.56299 3.49844 3.88486C3.52422 4.01611 3.55234 4.14502 3.58516 4.27627C3.43516 4.31846 3.2875 4.36533 3.14922 4.41455C1.89766 4.84814 1 5.53252 1 6.24033C1 6.97158 1.95625 7.70518 3.25703 8.15049C3.3625 8.18564 3.46797 8.2208 3.57578 8.25127C3.54063 8.39189 3.51016 8.53018 3.48203 8.67314C3.23594 9.97393 3.42813 11.0052 4.04219 11.3591C4.675 11.7247 5.73906 11.3497 6.775 10.4427C6.85703 10.37 6.93906 10.295 7.02109 10.2153C7.12422 10.3161 7.23203 10.4122 7.33984 10.506C8.34297 11.3685 9.33438 11.7177 9.94609 11.3638C10.5789 10.9981 10.7852 9.88955 10.518 8.53955C10.4969 8.43643 10.4734 8.33096 10.4477 8.22314C10.5227 8.20205 10.5953 8.17861 10.668 8.15518C12.0203 7.70752 13 6.9833 13 6.24033C13 5.53018 12.0766 4.84111 10.8016 4.40283ZM7.63047 2.41299C8.50234 1.65361 9.31563 1.35596 9.68594 1.56924C10.082 1.79658 10.2344 2.71533 9.98594 3.92236C9.96953 4.00205 9.95313 4.07939 9.93203 4.15674C9.41172 4.03955 8.88437 3.95518 8.35469 3.9083C8.05 3.47236 7.71719 3.05518 7.35625 2.66377C7.44766 2.57705 7.53672 2.49502 7.63047 2.41299ZM4.91875 7.45674C5.03828 7.66064 5.16016 7.86455 5.28906 8.06377C4.92344 8.02393 4.56016 7.96533 4.20156 7.88799C4.30469 7.55049 4.43359 7.20127 4.58359 6.84502C4.69141 7.05127 4.80156 7.25518 4.91875 7.45674ZM4.20859 4.63721C4.54609 4.56221 4.90469 4.50127 5.27734 4.45439C5.15312 4.64893 5.03125 4.84814 4.91641 5.04971C4.80156 5.24893 4.68906 5.45283 4.58359 5.65908C4.43594 5.30986 4.31172 4.96768 4.20859 4.63721ZM4.85078 6.25205C5.00547 5.92861 5.17422 5.61221 5.35234 5.30049C5.53047 4.98877 5.72266 4.68643 5.92422 4.38877C6.27578 4.36299 6.63437 4.34893 7 4.34893C7.36563 4.34893 7.72656 4.36299 8.07578 4.38877C8.275 4.68408 8.46484 4.98643 8.64531 5.2958C8.82578 5.60518 8.99453 5.92158 9.15391 6.24268C8.99687 6.56611 8.82812 6.88486 8.64766 7.19893C8.46953 7.51064 8.27969 7.81299 8.08047 8.11299C7.73125 8.13877 7.36797 8.15049 7 8.15049C6.63203 8.15049 6.27578 8.13877 5.93125 8.11768C5.72734 7.82002 5.53516 7.51533 5.35469 7.20361C5.17422 6.89189 5.00781 6.57549 4.85078 6.25205ZM9.08359 7.45205C9.20312 7.2458 9.31563 7.03721 9.42578 6.82627C9.57578 7.16611 9.70703 7.51064 9.82187 7.86455C9.45859 7.94658 9.09062 8.00986 8.72031 8.05205C8.84687 7.85518 8.96641 7.65361 9.08359 7.45205ZM9.42109 5.65908C9.31094 5.45283 9.19844 5.24658 9.08125 5.04502C8.96641 4.8458 8.84688 4.64893 8.72266 4.45439C9.1 4.50127 9.46094 4.56455 9.79844 4.64189C9.69062 4.98877 9.56406 5.32627 9.42109 5.65908ZM7.00469 3.02236C7.25078 3.28955 7.48281 3.5708 7.69844 3.86143C7.23437 3.84033 6.76797 3.84033 6.30391 3.86143C6.53359 3.55908 6.77031 3.27783 7.00469 3.02236ZM4.28594 1.58564C4.67969 1.35596 5.55391 1.68408 6.475 2.49971C6.53359 2.55127 6.59219 2.60752 6.65312 2.66377C6.28984 3.05518 5.95469 3.47236 5.64766 3.9083C5.11797 3.95518 4.59297 4.03721 4.07266 4.15205C4.04219 4.03252 4.01641 3.91064 3.99062 3.78877C3.77031 2.65439 3.91562 1.79893 4.28594 1.58564ZM3.71172 7.76377C3.61328 7.73564 3.51719 7.70518 3.42109 7.67236C2.92188 7.51533 2.35469 7.26689 1.94453 6.94111C1.70781 6.77705 1.54844 6.52393 1.50391 6.24033C1.50391 5.81143 2.24453 5.26299 3.31328 4.89033C3.44687 4.84346 3.58281 4.80127 3.71875 4.76143C3.87813 5.27002 4.07031 5.76924 4.29297 6.25205C4.06797 6.74189 3.87344 7.24814 3.71172 7.76377ZM6.44453 10.0606C6.05781 10.4146 5.61016 10.6958 5.12266 10.888C4.8625 11.0122 4.5625 11.0239 4.29531 10.9185C3.92266 10.7028 3.76797 9.87549 3.97891 8.76221C4.00469 8.63096 4.03281 8.49971 4.06563 8.3708C4.59063 8.4833 5.12031 8.56064 5.65703 8.60049C5.96641 9.03877 6.30625 9.4583 6.66953 9.85205C6.59453 9.92471 6.51953 9.99502 6.44453 10.0606ZM7.01875 9.49111C6.77969 9.2333 6.54062 8.94736 6.30859 8.64033C6.53359 8.64971 6.76562 8.65439 7 8.65439C7.24141 8.65439 7.47812 8.64971 7.7125 8.63799C7.49687 8.93564 7.26484 9.21924 7.01875 9.49111ZM10.082 10.1942C10.0609 10.4802 9.92031 10.7474 9.69531 10.9278C9.32266 11.1435 8.52813 10.8622 7.67031 10.1263C7.57188 10.0419 7.47344 9.95049 7.37266 9.85674C7.73125 9.46064 8.06172 9.04111 8.36172 8.60049C8.89844 8.55596 9.43281 8.47393 9.96016 8.35439C9.98359 8.45049 10.0047 8.54658 10.0234 8.64033C10.1383 9.14658 10.157 9.67393 10.082 10.1942ZM10.5086 7.67471C10.443 7.6958 10.3773 7.71689 10.3094 7.73564C10.1453 7.22471 9.94375 6.72549 9.71172 6.24033C9.93672 5.76221 10.1266 5.27002 10.2859 4.76611C10.4078 4.80127 10.525 4.83877 10.6375 4.87627C11.7297 5.25127 12.4961 5.80908 12.4961 6.23564C12.4961 6.69502 11.6781 7.28799 10.5086 7.67471ZM7 7.32314C7.59297 7.32314 8.07344 6.84268 8.07344 6.24971C8.07344 5.65674 7.59297 5.17627 7 5.17627C6.40703 5.17627 5.92656 5.65674 5.92656 6.24971C5.92656 6.84268 6.40703 7.32314 7 7.32314Z" fill="#5483B3" style="fill:#5483B3;fill:color(display-p3 0.3294 0.5137 0.7020);fill-opacity:1;"/>
  <defs>
    <radialGradient id="paint0_radial_1060_1459" cx="0" cy="0" r="1" gradientUnits="userSpaceOnUse" gradientTransform="translate(7.19971 6.49979) rotate(91.79) scale(5.91955 6.76483)">
      <stop stop-color="#C1E8FF" style="stop-color:#C1E8FF;stop-color:color(display-p3 0.7569 0.9098 1.0000);stop-opacity:1;"/>
      <stop offset="1" stop-color="#7DA0CA" stop-opacity="0.72" style="stop-color:#7DA0CA;stop-color:color(display-p3 0.4902 0.6275 0.7922);stop-opacity:0.72;"/>
    </radialGradient>
  </defs>
</svg>
